# xmcd
#
# Track frame offsets: 
#        150
#        26482
#        44630
#        63765
#        83102
#        105312
#        129180
#        148985
#        166495
#        189632
#
# Disc length: 2597 seconds
#
# Revision: 5
# Processed by: cddbd v1.5.2PL0 Copyright (c) Steve Scherf et al.
# Submitted via: ExactAudioCopy v1.3
#
DISCID=830a230a
DTITLE=Yuriko Nakamura - 夢の時へ Journey Into Precious Time
DYEAR=1995
DGENRE=Easy Listening
TTITLE0=あなたが微笑む日 Your Precious Day
TTITLE1=もう一度雨の日に See You On A Rainy Day
TTITLE2=夢の舟 Le Bateau De Reve
TTITLE3=夢の夜会（ソワレ） Invitation To Enchantment
TTITLE4=JET STREAM - I Wish -
TTITLE5=Twilight Winds
TTITLE6=愛の旅立ち El Momento
TTITLE7=ショパンの恋のように Capriccio
TTITLE8=Eternal Field
TTITLE9=Reprise
EXTD=YEAR: 1995
EXTT0=
EXTT1=
EXTT2=
EXTT3=
EXTT4=
EXTT5=
EXTT6=
EXTT7=
EXTT8=
EXTT9=
PLAYORDER=
